<svg viewBox="0 0 32 32">
  <path d="M28 16.3a15 15 0 00-6.6-4.9c.6-4.6-1-7.5-5.6-7.7 0 0-.2-.8.6-2.4l-1.6-1c-.6.7-1 1.6-1.4 2.5-1.3-1-2.7-.8-4.4-.8-1.3 0-2.4 1-2.5 2.3C7 7.6 5.6 9 10 9c0 1 0 2.2.5 3-8 3.3-9.7 8.5-9.5 18.4l2-1.9A11 11 0 004.5 32h2.2a12.3 12.3 0 01-2.2-5l2.6-2.7-1.4 4c5-4.1 12-5 16.9-3.6 2.5.4 5-.2 6-1.9.8 3.7-.3 7.1-1.8 9.3h2c2.3-5.2 2-11.6-1.4-15.7zm-14.3-12c.4.5 1 .8 1.6.8 4.6.3 6 4.7 2.7 6.6-1.3-1.9-3.6-1.4-4 .4a3.4 3.4 0 01-2-4c0-.5 1.2-3 1.7-3.8zm4.1 10.8c-.3.4-.6.6-1.1.5-.4-.3-.2-.5-.2-.6l.8-.6"/>
  <path d="M22 29c0 1.7-2.6 1.7-2.6 0 0-.7.6-1.3 1.3-1.3.7 0 1.3.6 1.3 1.3zM14 29c0 1.7-2.6 1.7-2.6 0 0-.7.6-1.3 1.3-1.3.7 0 1.3.6 1.3 1.3z"/>
</svg>
